<?xml version="1.0" standalone="no"?>
<!DOCTYPE svg PUBLIC "-//W3C//DTD SVG 20010904//EN"
 "http://www.w3.org/TR/2001/REC-SVG-20010904/DTD/svg10.dtd">
<svg version="1.0" xmlns="http://www.w3.org/2000/svg"
 width="300.000000pt" height="290.000000pt" viewBox="0 0 300.000000 290.000000"
 preserveAspectRatio="xMidYMid meet">

<g transform="translate(0.000000,290.000000) scale(0.100000,-0.100000)"
fill="#000000" stroke="none">
<path d="M779 2662 c-42 -53 -210 -265 -374 -471 -164 -206 -300 -382 -302
-390 -2 -9 26 -146 62 -306 37 -159 98 -424 135 -588 37 -164 70 -300 72 -302
10 -10 1093 -525 1104 -525 15 0 1084 516 1097 529 12 12 278 1183 272 1198
-2 6 -173 223 -379 482 l-376 471 -617 0 -618 -1 -76 -97z m1252 -39 c4 -4
158 -196 342 -425 l334 -417 -119 -533 c-65 -293 -122 -536 -126 -539 -16 -13
-967 -472 -978 -472 -7 0 -233 105 -502 233 l-489 233 -122 530 c-90 388 -121
535 -113 547 5 9 157 203 337 431 l328 414 526 5 c557 5 570 5 582 -7z"/>
<path d="M1086 2550 l-129 -5 -155 -195 c-84 -107 -226 -286 -313 -397 l-160
-202 116 -497 c63 -274 116 -498 118 -500 10 -9 911 -434 920 -434 21 0 910
438 918 452 12 23 220 968 217 986 -2 10 -145 195 -318 410 l-315 392 -385 -2
c-212 -1 -443 -5 -514 -8z m349 -112 c3 -13 10 -45 15 -73 6 -27 13 -58 16
-67 4 -13 0 -18 -15 -18 -17 0 -21 6 -21 30 0 17 -5 30 -11 30 -7 0 -10 -12
-7 -30 4 -25 1 -30 -16 -30 -15 0 -17 3 -8 12 7 7 12 43 12 90 0 62 3 78 15
78 8 0 17 -10 20 -22z m169 16 c8 -3 12 -12 9 -20 -4 -12 -7 -12 -18 3 -12 16
-13 15 -18 -3 -13 -46 -19 -144 -8 -144 6 0 10 5 9 11 -2 6 3 14 10 16 9 4 13
-1 10 -13 -4 -24 -53 -32 -61 -10 -8 21 10 135 24 152 13 15 20 17 43 8z
m-316 -19 c-3 -3 5 -40 18 -82 18 -59 21 -79 11 -85 -8 -5 -16 3 -25 25 l-12
32 5 -33 c4 -28 1 -34 -21 -42 -34 -13 -44 -13 -38 3 2 7 -6 45 -19 85 -18 56
-20 72 -10 76 8 4 24 -16 43 -52 31 -60 34 -57 21 20 -8 51 -6 58 17 58 9 0
13 -2 10 -5z m477 -34 c3 -10 -5 -47 -17 -82 -17 -48 -28 -65 -44 -67 -39 -6
-45 18 -24 87 11 35 23 67 26 72 10 17 52 10 59 -10z m-661 -47 c4 -12 1 -14
-14 -9 -24 8 -26 -4 -5 -31 10 -14 14 -15 15 -4 0 12 2 12 13 1 9 -11 9 -14 0
-18 -9 -3 -7 -16 8 -46 19 -36 23 -39 34 -24 11 15 25 14 25 -3 0 -11 -53 -31
-60 -23 -4 4 -24 38 -44 75 l-37 66 23 16 c28 20 34 20 42 0z m816 -24 c0 -5
-4 -12 -10 -15 -5 -3 -10 1 -10 9 0 22 -17 20 -30 -3 -7 -14 -7 -20 2 -23 7
-3 8 -10 4 -17 -6 -9 -10 -10 -15 -2 -5 7 -17 -7 -32 -33 -16 -30 -29 -42 -37
-37 -9 5 0 28 30 83 l43 76 28 -14 c15 -8 27 -19 27 -24z m-570 -174 c59 -18
191 -71 242 -97 22 -11 42 -18 45 -16 9 10 -60 77 -93 89 -46 16 -43 28 9 28
84 0 147 -27 203 -86 l51 -55 13 46 c7 25 16 45 20 45 4 0 12 -39 19 -87 17
-124 19 -130 51 -143 25 -10 80 -74 80 -93 0 -4 -7 -7 -16 -7 -30 0 -2 -20 82
-59 96 -45 147 -79 139 -91 -3 -5 -36 -12 -74 -16 -50 -5 -76 -13 -97 -30
l-29 -23 43 -1 c71 0 142 -45 142 -89 0 -44 -34 -85 -97 -119 -61 -32 -105
-40 -133 -22 -10 6 -22 5 -35 -4 -11 -7 -29 -16 -40 -20 -16 -6 -14 -1 9 23
34 35 28 53 -14 41 -38 -11 -38 -5 0 15 36 18 38 31 8 41 -23 7 -22 7 5 16 15
5 27 13 27 18 0 5 12 22 26 39 32 39 13 34 -63 -16 -49 -32 -55 -34 -88 -23
-68 22 -125 92 -125 152 0 34 -24 13 -37 -33 -7 -24 -16 -80 -19 -125 -11
-132 16 -212 121 -365 36 -52 57 -96 66 -133 14 -63 24 -70 33 -25 12 62 6
153 -14 197 -10 23 -16 42 -13 42 4 0 23 -11 44 -25 67 -47 127 -214 116 -323
-7 -67 -53 -147 -119 -207 -48 -43 -159 -113 -213 -133 -44 -17 -150 -42 -175
-42 -21 0 -21 0 -2 28 33 47 45 99 40 186 -6 124 -33 173 -166 304 -60 59
-124 127 -142 152 -49 66 -52 68 -44 35 12 -53 73 -159 139 -242 87 -110 113
-166 121 -254 5 -51 4 -70 -4 -65 -6 3 -13 20 -17 36 -14 64 -66 105 -290 230
-309 172 -380 247 -392 413 -5 70 -3 75 41 164 40 83 86 208 86 236 0 16 -40
-41 -75 -107 -29 -54 -52 -75 -41 -38 2 9 7 49 11 87 16 158 68 287 136 336
16 11 58 30 94 42 46 16 85 40 139 85 117 98 173 117 266 88z m892 -661 c0
-43 -21 -85 -42 -85 -9 0 1 111 12 134 15 28 30 5 30 -49z m-504 -151 c41 -46
71 -84 67 -84 -33 0 -127 88 -145 136 -21 55 -6 45 78 -52z m470 9 c31 -44 35
-69 16 -108 -22 -47 -34 -44 -35 8 l-1 42 -15 -50 c-21 -74 -43 -122 -65 -142
-20 -18 -20 -17 -13 32 l7 50 -32 -37 c-34 -41 -80 -55 -60 -19 14 28 12 67
-5 81 -12 10 -11 17 10 48 21 31 145 122 167 122 4 0 15 -12 26 -27z m-168
-383 c17 -26 30 -55 30 -66 0 -17 -55 -124 -64 -124 -2 0 -1 30 1 68 5 65 0
87 -42 197 -13 33 40 -20 75 -75z"/>
<path d="M1412 2370 c0 -14 2 -19 5 -12 2 6 2 18 0 25 -3 6 -5 1 -5 -13z"/>
<path d="M1236 2290 c7 -28 12 -35 18 -29 2 2 -2 15 -10 29 l-15 25 7 -25z"/>
<path d="M1710 2345 c-12 -36 -20 -71 -17 -78 5 -14 18 14 41 91 22 75 2 64
-24 -13z"/>
<path d="M1340 2008 c3 -3 64 -33 136 -67 l132 -62 123 3 124 3 -39 43 c-40
43 -93 78 -104 68 -3 -3 2 -14 10 -23 21 -25 30 -53 16 -53 -6 0 -41 11 -79
25 -38 13 -110 31 -161 39 -51 9 -109 18 -128 22 -19 4 -33 4 -30 2z"/>
<path d="M1175 1934 c11 -8 29 -21 40 -29 23 -15 31 -11 -90 -44 -44 -12 -102
-33 -130 -47 l-50 -24 78 4 c42 3 77 1 77 -3 0 -4 -20 -23 -45 -41 -25 -19
-59 -55 -75 -80 -28 -43 -58 -136 -48 -146 3 -3 25 19 49 47 44 52 133 129
150 129 5 0 -4 -27 -21 -60 -16 -32 -41 -88 -54 -123 -24 -65 -61 -225 -53
-233 2 -2 21 21 42 51 44 65 90 107 147 136 l41 21 -7 -24 c-27 -99 -14 -206
34 -278 l30 -45 -6 81 c-8 93 8 156 55 221 15 21 30 43 34 50 4 7 -10 19 -38
33 -56 27 -122 101 -131 147 -15 82 15 147 76 163 67 18 169 -38 133 -73 -3
-4 -11 -3 -17 3 -7 5 -31 13 -54 19 l-43 9 15 -23 c16 -24 15 -24 -20 -18
l-36 6 26 -26 c36 -36 33 -51 -5 -32 -39 21 -45 15 -25 -23 18 -35 88 -98 146
-130 l41 -23 -13 25 c-7 14 -29 37 -48 51 l-34 25 27 0 c32 0 33 4 7 38 -22
27 -14 42 21 42 9 0 28 11 44 26 24 22 26 29 20 70 -6 43 -6 44 22 44 21 1 24
3 13 9 -24 14 -299 91 -323 91 -22 -1 -22 -1 -2 -16z"/>
<path d="M1595 1799 c-37 -11 -57 -26 -78 -60 -17 -25 -47 -113 -47 -137 0
-20 46 9 110 68 l55 51 -39 -6 -39 -7 18 29 c10 15 27 38 38 51 11 12 19 22
16 21 -2 0 -17 -5 -34 -10z"/>
<path d="M1912 1766 c-12 -26 -14 -27 -30 -13 -25 23 -100 11 -134 -21 -16
-14 -28 -29 -28 -33 0 -4 20 -5 45 -2 29 3 76 -4 139 -21 51 -14 98 -26 102
-26 5 0 -11 15 -36 33 -34 24 -44 37 -42 55 2 12 2 30 0 39 -2 12 -6 9 -16
-11z"/>
<path d="M1493 1505 c-92 -84 -117 -134 -118 -235 0 -88 7 -103 101 -226 81
-106 101 -145 118 -225 13 -62 14 -63 25 -36 6 16 11 54 11 85 0 66 -21 117
-99 237 -45 71 -65 126 -43 124 4 0 29 -27 55 -60 80 -97 93 -94 46 11 -50
113 -59 192 -34 304 9 43 15 79 13 82 -2 2 -36 -26 -75 -61z"/>
<path d="M2000 1429 c0 -5 5 -7 10 -4 6 3 10 8 10 11 0 2 -4 4 -10 4 -5 0 -10
-5 -10 -11z"/>
</g>
</svg>
